<?xml version="1.0" encoding="utf-8"?>
<!-- Generator: Adobe Illustrator 21.0.0, SVG Export Plug-In . SVG Version: 6.00 Build 0)  -->
<svg version="1.1" id="Symbol_Editing_Mode" xmlns="http://www.w3.org/2000/svg" xmlns:xlink="http://www.w3.org/1999/xlink"
	 x="0px" y="0px" viewBox="0 0 448.2 332.5" style="enable-background:new 0 0 448.2 332.5;" xml:space="preserve">
<style type="text/css">
	.st0{fill:#FFFFFF;}
</style>
<g id="Deleted_Symbol_2_">
</g>
<path class="st0" d="M104.8,53h66.7v222.9h-54.2V162.6h-1.9l-20.8,78.8H76.8L56,162.6h-1.9v113.3H0V53h66.7L85,130.6h1.6L104.8,53z
	 M334.6,53v43.3h27.8v179.6h58V96.3h27.8V53H334.6z M257,288.3c-10.4,0-18.5,3.6-24,10.7v23c5.8,6.8,14,10.4,24,10.4
	c10.1,0,18.2-3.6,24-10.4v-23C275.5,291.9,267.4,288.3,257,288.3z M313.7,36.8L288.3,0h-62.6l-25.4,36.8v2.6h113.3v-2.6H313.7z
	 M326.6,83.7v160.5c-1.7,3.2-4,6.4-6.9,9.9c-2.9,3.5-7.2,7.3-12.6,11.8s-12.4,8-21.3,10.8c-8.9,2.9-18.5,4.1-29,4.1
	s-20.1-1.3-28.7-4.1c-8.6-2.9-15.6-6.4-21-10.5s-9.6-8-12.4-11.5c-2.9-3.5-5.2-7-6.8-10.2V83.4c1.7-3.2,3.7-6.7,6.5-10.2
	c2.9-3.5,7-7.3,12.4-11.5c5.4-4.1,12.4-7.6,21-10.5s18.2-4.1,28.7-4.1c10.5,0,20.4,1.3,29.3,4.1c8.9,2.9,16,6.4,21.4,10.8
	c5.4,4.5,9.6,8.3,12.5,11.8S324.9,80.5,326.6,83.7z M268.3,103.1c-2.5-5.1-6-7.6-11.4-7.6s-8.9,2.5-11.4,7.6v121
	c2.5,5.1,6,7.6,11.4,7.6s8.9-2.5,11.4-7.6V103.1z M218.2,290.7H0v39.4h218.2V290.7z M437.9,290.7H295.8v39.4h142.1V290.7z"/>
</svg>
